{"asset":{"version":"2.0","generator":"Blockbench 4.10.4 glTF exporter"},"scenes":[{"nodes":[2],"name":"blockbench_export"}],"scene":0,"nodes":[{"rotation":[0.07574916515287881,0.7076668929734523,-0.6981419358728714,0.07789396602832376],"translation":[0.10312500000000002,-0.3687499999999998,-1.3609374999999975],"name":"beveled_cuboid","mesh":0},{"name":"bone","children":[0]},{"children":[1]}],"bufferViews":[{"buffer":0,"byteOffset":0,"byteLength":3672,"target":34962,"byteStride":12},{"buffer":0,"byteOffset":3672,"byteLength":3672,"target":34962,"byteStride":12},{"buffer":0,"byteOffset":7344,"byteLength":2448,"target":34962,"byteStride":8},{"buffer":0,"byteOffset":9792,"byteLength":828,"target":34963}],"buffers":[{"byteLength":10620,"uri":"data:application/octet-stream;base64,"}],"accessors":[{"bufferView":0,"componentType":5126,"count":306,"max":[0.7280174493789673,0.78125,0.19802440702915192],"min":[-0.8850182890892029,-2.4194493293762207,-0.9059116840362549],"type":"VEC3"},{"bufferView":1,"componentType":5126,"count":306,"max":[1,0.9947783946990967,0.9999344348907471],"min":[-1,-0.9962242841720581,-0.9999878406524658],"type":"VEC3"},{"bufferView":2,"componentType":5126,"count":306,"max":[0.4770575761795044,0.7498230338096619],"min":[0.034629594534635544,0.042748525738716125],"type":"VEC2"},{"bufferView":3,"componentType":5123,"count":414,"max":[305],"min":[0],"type":"SCALAR"}],"materials":[{"pbrMetallicRoughness":{"metallicFactor":0,"roughnessFactor":1,"baseColorTexture":{"index":0}},"alphaMode":"MASK","alphaCutoff":0.05,"doubleSided":true}],"textures":[{"sampler":0,"source":0,"name":"stiched_texture"}],"samplers":[{"magFilter":9728,"minFilter":9728,"wrapS":33071,"wrapT":33071}],"images":[{"mimeType":"image/png","uri":"data:image/png;base64,"}],"meshes":[{"primitives":[{"mode":4,"attributes":{"POSITION":0,"NORMAL":1,"TEXCOORD_0":2},"indices":3,"material":0}]}]}